<?xml version="1.0" encoding="utf-8"?>
<!-- Generator: Adobe Illustrator 22.0.0, SVG Export Plug-In . SVG Version: 6.00 Build 0)  -->
<svg version="1.1" id="Layer_1" xmlns="http://www.w3.org/2000/svg" xmlns:xlink="http://www.w3.org/1999/xlink" x="0px" y="0px"
	 viewBox="0 0 23 23" style="enable-background:new 0 0 23 23;" xml:space="preserve">
<style type="text/css">
	.st0{fill:#333333;}
</style>
<g id="XMLID_198_">
	<g id="XMLID_207_">
		<g>
			<path id="XMLID_23_" class="st0" d="M11.1,17.2c-0.2,0-0.4,0-0.5,0C5,16.9,1.4,12,1.3,11.8c-0.3-0.4-0.3-1,0-1.4
				c0.1-0.2,3.7-4.7,9.2-5c3.6-0.2,7.2,1.5,10.5,4.9c0.4,0.5,0.4,1.2,0,1.6C17.9,15.5,14.6,17.2,11.1,17.2z M3.8,11.1
				c1.1,1.2,3.6,3.5,6.9,3.7c2.6,0.1,5.2-1.1,7.8-3.7c-2.6-2.4-5.2-3.6-7.9-3.4C7.4,7.9,4.9,10,3.8,11.1z"/>
		</g>
	</g>
	<path id="XMLID_199_" class="st0" d="M11.5,10.3l3.6-1.6c-0.1-0.3-0.3-0.6-0.5-0.9c-1.4-1.7-3.9-2-5.6-0.6s-2,3.9-0.6,5.6
		s3.9,2,5.6,0.6c0.5-0.4,0.9-1,1.2-1.6L11.5,10.3z"/>
</g>
</svg>
