<?xml version="1.0" encoding="utf-8"?>
<!-- Generator: Adobe Illustrator 22.0.0, SVG Export Plug-In . SVG Version: 6.00 Build 0)  -->
<svg version="1.1" id="Layer_1" xmlns="http://www.w3.org/2000/svg" xmlns:xlink="http://www.w3.org/1999/xlink" x="0px" y="0px"
	 viewBox="0 0 127.2 23.9" style="enable-background:new 0 0 127.2 23.9;" xml:space="preserve">
<style type="text/css">
	.st0{fill:#0798B4;}
	.st1{fill:url(#XMLID_2_);}
	.st2{fill:url(#XMLID_3_);}
	.st3{fill:url(#XMLID_4_);}
	.st4{fill:none;}
	.st5{fill:url(#XMLID_5_);}
	.st6{fill:url(#XMLID_6_);}
	.st7{fill:url(#XMLID_7_);}
	.st8{fill:url(#XMLID_8_);}
	.st9{fill:url(#XMLID_9_);}
	.st10{fill:url(#XMLID_10_);}
</style>
<g id="XMLID_851_">
	<g id="XMLID_918_">
		<path id="XMLID_920_" class="st0" d="M37.7,13.9c0-3.2,2.2-5.9,5.2-6.7c-4,0.6-7.1,4.1-7.1,8.3c0,4.6,3.8,8.4,8.4,8.4
			c1.8,0,3.4-0.6,4.8-1.5l-1.7-2.3c-0.8,0.4-1.7,0.7-2.6,0.7c-0.2,0-0.4,0-0.6,0C40.5,20.4,37.7,17.5,37.7,13.9z"/>
		<linearGradient id="XMLID_2_" gradientUnits="userSpaceOnUse" x1="47.4339" y1="13.9385" x2="38.7154" y2="13.9385">
			<stop  offset="0" style="stop-color:#F0C33E"/>
			<stop  offset="0.3495" style="stop-color:#EFC03C"/>
			<stop  offset="0.6082" style="stop-color:#ECB737"/>
			<stop  offset="0.8369" style="stop-color:#E7A72D"/>
			<stop  offset="1" style="stop-color:#E19623"/>
		</linearGradient>
		<path id="XMLID_919_" class="st1" d="M39.2,15.4c0-3,2.4-5.4,5.4-5.4c1,0,2,0.3,2.8,0.8L49,8.7c-1.4-1-3-1.5-4.8-1.5
			c-0.4,0-0.8,0-1.3,0.1c-3,0.8-5.2,3.5-5.2,6.7c0,3.6,2.7,6.6,6.3,6.9C41.3,20.5,39.2,18.2,39.2,15.4z"/>
	</g>
	<path id="XMLID_916_" class="st0" d="M59.2,23.4c-1.1,0.4-2.2,0.6-3.2,0.6c-2.4,0-3.5-1.1-3.5-3.3V0h3.9v19.7c0,0.7,0.3,1,0.8,1
		c0.3,0,0.7-0.1,1.2-0.4L59.2,23.4z"/>
	<path id="XMLID_914_" class="st0" d="M112.1,23.6h-3.9V7.5h3.9V23.6z"/>
	<g id="XMLID_911_">
		<path id="XMLID_913_" class="st0" d="M22,17.6V7.5h-3.9v10.7c0,3.8,2.3,5.7,7,5.7c1.9,0,4.3-0.5,7.3-1.6C21.5,24,22,18.1,22,17.6z
			"/>
		<linearGradient id="XMLID_3_" gradientUnits="userSpaceOnUse" x1="27.1965" y1="8.1712" x2="27.1965" y2="22.8593">
			<stop  offset="0" style="stop-color:#0798B4"/>
			<stop  offset="0.2272" style="stop-color:#0A99B5"/>
			<stop  offset="0.3954" style="stop-color:#139DB7"/>
			<stop  offset="0.5447" style="stop-color:#23A3BC"/>
			<stop  offset="0.6829" style="stop-color:#3AACC2"/>
			<stop  offset="0.8135" style="stop-color:#57B7CA"/>
			<stop  offset="0.9367" style="stop-color:#7BC5D4"/>
			<stop  offset="1" style="stop-color:#90CDDA"/>
		</linearGradient>
		<path id="XMLID_912_" class="st2" d="M32.2,7.5h-3.9v11.7c0,0.1,0,0.4,0.1,0.7c-1.3,0.5-2.3,0.7-3.2,0.7c-2.1,0-3.2-1-3.2-3
			c0,0.5-0.5,6.4,10.4,4.7c-0.2-1-0.2-1.8-0.2-2.2V7.5z"/>
	</g>
	<g id="XMLID_908_">
		<path id="XMLID_910_" class="st0" d="M7.3,7.2C5.4,7.2,3,7.8,0,8.8c11-1.6,10.4,4.2,10.4,4.7v10.1h3.9V12.9
			C14.3,9.1,12,7.2,7.3,7.2z"/>
		<linearGradient id="XMLID_4_" gradientUnits="userSpaceOnUse" x1="5.2217" y1="23.3861" x2="5.2217" y2="8.0588">
			<stop  offset="0" style="stop-color:#0798B4"/>
			<stop  offset="0.2272" style="stop-color:#0A99B5"/>
			<stop  offset="0.3954" style="stop-color:#139DB7"/>
			<stop  offset="0.5447" style="stop-color:#23A3BC"/>
			<stop  offset="0.6829" style="stop-color:#3AACC2"/>
			<stop  offset="0.8135" style="stop-color:#57B7CA"/>
			<stop  offset="0.9367" style="stop-color:#7BC5D4"/>
			<stop  offset="1" style="stop-color:#90CDDA"/>
		</linearGradient>
		<path id="XMLID_909_" class="st3" d="M0,8.8c0.2,1,0.2,1.8,0.2,2.2v12.6h3.9V12c0-0.1,0-0.4-0.1-0.7c1.3-0.5,2.3-0.7,3.2-0.7
			c2.1,0,3.2,1,3.2,3C10.4,13,11,7.2,0,8.8z"/>
	</g>
	<g id="XMLID_867_">
		<path id="XMLID_907_" class="st4" d="M67.9,10.3c-1,0-1.8,0.3-2.4,1c-0.6,0.7-0.9,1.5-1,2.6h6.6c0-1-0.3-1.9-0.8-2.6
			C69.8,10.7,68.9,10.3,67.9,10.3z"/>
		<path id="XMLID_869_" class="st0" d="M75.2,14.8c0-2.3-0.6-4.1-1.9-5.5c-1.3-1.4-3.1-2.2-5.4-2.2c-2.4,0-4.2,0.8-5.6,2.5
			c-1.3,1.5-1.9,3.5-1.9,5.9c0,2.5,0.8,4.5,2.3,6.1c1.5,1.5,3.5,2.3,6,2.3c1.8,0,3.7-0.4,5.5-1.2c-10.1,0.6-9.6-5.8-9.6-5.8h10.4
			C75.1,15.9,75.2,15.2,75.2,14.8z M64.6,13.9c0-1,0.4-1.9,1-2.6c0.6-0.7,1.4-1,2.4-1c1,0,1.8,0.3,2.4,1c0.5,0.7,0.8,1.5,0.8,2.6
			H64.6z"/>
		<linearGradient id="XMLID_5_" gradientUnits="userSpaceOnUse" x1="74.2254" y1="19.8677" x2="65.7209" y2="19.8677">
			<stop  offset="0" style="stop-color:#0798B4"/>
			<stop  offset="0.2272" style="stop-color:#0A99B5"/>
			<stop  offset="0.3954" style="stop-color:#139DB7"/>
			<stop  offset="0.5447" style="stop-color:#23A3BC"/>
			<stop  offset="0.6829" style="stop-color:#3AACC2"/>
			<stop  offset="0.8135" style="stop-color:#57B7CA"/>
			<stop  offset="0.9367" style="stop-color:#7BC5D4"/>
			<stop  offset="1" style="stop-color:#90CDDA"/>
		</linearGradient>
		<path id="XMLID_868_" class="st5" d="M74.2,22.7l-1.2-3c-1.2,0.6-2.6,0.8-4.1,0.8c-2.6,0-4-1.2-4.3-3.6
			C64.6,17,64.1,23.3,74.2,22.7z"/>
	</g>
	<g id="XMLID_861_">
		<path id="XMLID_866_" class="st4" d="M87.7,15.7c-0.3,0.3-1,0.6-2.1,0.8c-1.3,0.3-2.1,0.5-2.5,0.7c-0.8,0.4-1.2,0.9-1.2,1.5
			c0,1.3,1,2,3,2c0.9,0,1.9-0.1,2.8-0.4c0-0.3-0.1-0.5-0.1-0.6V15.7z"/>
		<path id="XMLID_863_" class="st0" d="M91.6,20.7v-8.3c0-1.8-0.6-3.1-1.7-4c-1-0.8-2.5-1.2-4.3-1.2c-2.2,0-4.3,0.5-6.3,1.4
			c0,0,8.6-1.1,8.5,3.4c0,0.7-0.9,1.3-2.6,1.6c-2.5,0.6-4.1,1-4.8,1.3c-1.7,0.9-2.6,2.2-2.6,4.1c0,1.7,0.8,3,2.4,3.9
			c1.3,0.7,2.9,1,4.8,1c1.8,0,4.1-0.4,6.8-1.3C91.7,21.7,91.6,21.1,91.6,20.7z M85,20.7c-2,0-3-0.7-3-2c0-0.7,0.4-1.2,1.2-1.5
			c0.3-0.1,1.2-0.4,2.5-0.7c1-0.2,1.7-0.5,2.1-0.8v4c0,0.1,0,0.3,0.1,0.6C86.9,20.6,85.9,20.7,85,20.7z"/>
		<linearGradient id="XMLID_6_" gradientUnits="userSpaceOnUse" x1="79.3853" y1="10.2083" x2="86.7955" y2="10.2083">
			<stop  offset="0" style="stop-color:#0798B4"/>
			<stop  offset="0.2272" style="stop-color:#0A99B5"/>
			<stop  offset="0.3954" style="stop-color:#139DB7"/>
			<stop  offset="0.5447" style="stop-color:#23A3BC"/>
			<stop  offset="0.6829" style="stop-color:#3AACC2"/>
			<stop  offset="0.8135" style="stop-color:#57B7CA"/>
			<stop  offset="0.9367" style="stop-color:#7BC5D4"/>
			<stop  offset="1" style="stop-color:#90CDDA"/>
		</linearGradient>
		<path id="XMLID_862_" class="st6" d="M79.2,8.5l1.3,2.9c1.5-0.6,3-1,4.5-1c1.8,0,2.7,0.5,2.7,1.5C87.9,7.5,79.2,8.5,79.2,8.5z"/>
	</g>
	<g id="XMLID_858_">
		<path id="XMLID_860_" class="st0" d="M95.7,8.9c0.2,1.1,0.3,1.9,0.3,2.4v12.2h3.9V11.2c0-0.1,0-0.2,0-0.3c0.9-0.3,1.9-0.4,2.9-0.4
			c0.7,0,1.4,0.1,2.1,0.3C104.8,10.8,102.4,7.9,95.7,8.9z"/>
		<linearGradient id="XMLID_7_" gradientUnits="userSpaceOnUse" x1="105.4491" y1="8.9937" x2="96.4049" y2="8.9937">
			<stop  offset="0" style="stop-color:#0798B4"/>
			<stop  offset="0.2272" style="stop-color:#0A99B5"/>
			<stop  offset="0.3954" style="stop-color:#139DB7"/>
			<stop  offset="0.5447" style="stop-color:#23A3BC"/>
			<stop  offset="0.6829" style="stop-color:#3AACC2"/>
			<stop  offset="0.8135" style="stop-color:#57B7CA"/>
			<stop  offset="0.9367" style="stop-color:#7BC5D4"/>
			<stop  offset="1" style="stop-color:#90CDDA"/>
		</linearGradient>
		<path id="XMLID_859_" class="st7" d="M103,7.2c-2.1,0-4.5,0.6-7.3,1.8c6.7-1,9.1,1.9,9.1,1.9l1.2-3.3C105,7.3,104.1,7.2,103,7.2z"
			/>
	</g>
	<g id="XMLID_855_">
		<path id="XMLID_857_" class="st0" d="M125.3,15.2c-0.4-0.3-1.6-0.8-3.5-1.6c-1.3-0.5-1.9-1.1-1.9-1.8c0-1,0.7-1.4,2-1.4
			c1,0,2.2,0.2,3.5,0.7l1.1-3c-1.3-0.6-2.9-1-4.6-1c-1.5,0-2.8,0.4-3.9,1.1c-1.3,0.9-2,2-2,3.6c0,1.5,0.6,2.7,1.8,3.6
			c0.2,0.2,1.3,0.7,3.3,1.7c1.2,0.6,1.8,1.2,1.8,2c0,4-7.4,3.8-7.4,3.8c1.9,0.7,3.6,1.1,5.3,1.1c1.7,0,3.1-0.4,4.3-1.1
			c1.4-0.9,2.1-2.1,2.1-3.8C127.2,17.4,126.6,16.1,125.3,15.2z"/>
		<linearGradient id="XMLID_8_" gradientUnits="userSpaceOnUse" x1="115.7688" y1="20.9595" x2="122.1263" y2="20.9595">
			<stop  offset="0" style="stop-color:#0798B4"/>
			<stop  offset="0.2272" style="stop-color:#0A99B5"/>
			<stop  offset="0.3954" style="stop-color:#139DB7"/>
			<stop  offset="0.5447" style="stop-color:#23A3BC"/>
			<stop  offset="0.6829" style="stop-color:#3AACC2"/>
			<stop  offset="0.8135" style="stop-color:#57B7CA"/>
			<stop  offset="0.9367" style="stop-color:#7BC5D4"/>
			<stop  offset="1" style="stop-color:#90CDDA"/>
		</linearGradient>
		<path id="XMLID_856_" class="st8" d="M122.9,19c0,1.2-0.8,1.8-2.4,1.8c-1.1,0-2.4-0.3-3.9-1l-1.1,3
			C115.5,22.9,122.9,23.1,122.9,19z"/>
	</g>
	<g id="XMLID_852_">
		<linearGradient id="XMLID_9_" gradientUnits="userSpaceOnUse" x1="47.4339" y1="13.1836" x2="38.7154" y2="13.1836">
			<stop  offset="0" style="stop-color:#F0C33E"/>
			<stop  offset="0.3495" style="stop-color:#EFC03C"/>
			<stop  offset="0.6082" style="stop-color:#ECB737"/>
			<stop  offset="0.8369" style="stop-color:#E7A72D"/>
			<stop  offset="1" style="stop-color:#E19623"/>
		</linearGradient>
		<path id="XMLID_854_" class="st9" d="M44.8,14.1L44.8,14.1l1.4-1.8c-1.8-1.3-4.3-0.9-5.7,0.9c-0.3,0.5-0.4,1-0.5,1.6
			C41.2,13.3,43.3,13,44.8,14.1z"/>
		<linearGradient id="XMLID_10_" gradientUnits="userSpaceOnUse" x1="47.4339" y1="15.8882" x2="38.7154" y2="15.8882">
			<stop  offset="0" style="stop-color:#F0C33E"/>
			<stop  offset="0.3495" style="stop-color:#EFC03C"/>
			<stop  offset="0.6082" style="stop-color:#ECB737"/>
			<stop  offset="0.8369" style="stop-color:#E7A72D"/>
			<stop  offset="1" style="stop-color:#E19623"/>
		</linearGradient>
		<path id="XMLID_853_" class="st10" d="M42.9,16.7C42.9,16.7,42.9,16.7,42.9,16.7l0.9-1.1c-1.2-0.8-2.8-0.5-3.7,0.7c0,0,0,0,0,0
			c0,0.2,0.1,0.4,0.1,0.5C40.9,16.1,42,16.1,42.9,16.7z"/>
	</g>
</g>
</svg>
