<?xml version="1.0" encoding="utf-8"?>
<!-- Generator: Adobe Illustrator 22.0.0, SVG Export Plug-In . SVG Version: 6.00 Build 0)  -->
<svg version="1.1" id="Layer_1" xmlns="http://www.w3.org/2000/svg" xmlns:xlink="http://www.w3.org/1999/xlink" x="0px" y="0px"
	 viewBox="0 0 23 23" style="enable-background:new 0 0 23 23;" xml:space="preserve">
<g id="_x32_imPWE.tif">
	<g id="XMLID_6_">
		<path id="XMLID_1700_" d="M1.8,10c0-0.3,0-0.6,0-1c0,0,0-0.1,0-0.1c0-0.4,0.1-0.8,0.2-1.1C2.4,6,3.2,4.6,4.6,3.4
			c1-0.9,2.3-1.5,3.6-1.8c0.4-0.1,0.9-0.2,1.4-0.2c0,0,0,0,0.1,0c0.2,0,0.4,0,0.6,0c0,0,0,0,0.1,0c0.2,0,0.4,0,0.6,0
			c0.5,0.1,1,0.2,1.4,0.3C13.8,2.2,15,3,16.1,4.2c1.2,1.4,1.9,3.1,2,5c0,0.5,0,1-0.1,1.5c-0.2,1-0.5,2-1,2.9c-0.1,0.2-0.1,0.1,0,0.2
			c1.5,1.5,3,3,4.5,4.5c0.1,0.1,0.1,0.1,0.1,0.2c0,0.1,0,0.2,0,0.3c0,0.1-0.1,0.2-0.1,0.3c-0.1,0.2-0.2,0.3-0.3,0.5
			c-0.3,0.3-0.6,0.7-1,1c-0.2,0.2-0.5,0.4-0.8,0.4c0,0,0,0,0,0c-0.1,0-0.2,0-0.2,0c-0.1,0-0.2-0.1-0.2-0.2c-0.3-0.3-0.6-0.6-0.8-0.8
			c-1.2-1.2-2.5-2.5-3.7-3.7c-0.1-0.1-0.1-0.1-0.2,0c-0.3,0.2-0.7,0.4-1,0.5c-1,0.4-2,0.7-3,0.7c-0.3,0-0.7,0-1,0
			c-0.3,0-0.7-0.1-1-0.1c-1.4-0.3-2.7-1-3.8-2c-1.1-1-1.9-2.3-2.3-3.8c-0.1-0.5-0.2-1-0.3-1.5C1.8,10.1,1.8,10,1.8,10z M15.3,9.5
			c0-3-2.4-5.4-5.4-5.4c-3,0-5.4,2.4-5.4,5.4c0,3,2.4,5.4,5.4,5.4C12.8,14.9,15.3,12.5,15.3,9.5z"/>
	</g>
</g>
</svg>
