<?xml version="1.0" encoding="utf-8"?>
<!-- Generator: Adobe Illustrator 22.0.0, SVG Export Plug-In . SVG Version: 6.00 Build 0)  -->
<svg version="1.1" id="Layer_1" xmlns="http://www.w3.org/2000/svg" xmlns:xlink="http://www.w3.org/1999/xlink" x="0px" y="0px"
	 viewBox="0 0 23 23" style="enable-background:new 0 0 23 23;" xml:space="preserve">
<g id="_x37_HmXTs.tif">
	<g id="XMLID_1940_">
		<path id="XMLID_2010_" d="M5,7.8c0-0.2,0.1-0.4,0.2-0.6c0.4-1,1.3-1.7,2.4-1.7c1.7,0,3.4,0,5.1,0c0.3,0,0.6,0.2,0.6,0.6
			c0,0.3-0.2,0.6-0.5,0.6c-0.1,0-0.1,0-0.2,0c-1.6,0-3.2,0-4.8,0c-0.6,0-1,0.2-1.3,0.7C6.2,7.6,6.2,7.8,6.2,8c0,0.2,0,0.4,0,0.6
			c0,2.1,0,4.2,0,6.3c0,0.5,0.2,0.9,0.6,1.3c0.3,0.2,0.6,0.3,0.9,0.3c2.3,0,4.5,0,6.8,0c0.8,0,1.4-0.5,1.5-1.2c0-0.2,0-0.3,0-0.5
			c0-1.5,0-3.1,0-4.6c0-0.3,0.1-0.5,0.3-0.6c0.4-0.2,0.8,0.1,0.8,0.5c0,1.7,0,3.4,0,5c0,1-0.7,1.9-1.6,2.3c-0.2,0.1-0.4,0.1-0.6,0.2
			c-2.5,0-5.1,0-7.6,0c0,0,0,0-0.1,0c-0.8-0.1-1.4-0.5-1.8-1.2C5.2,16,5.1,15.7,5,15.3C5,12.8,5,10.3,5,7.8z"/>
		<path id="XMLID_2006_" d="M18.3,6.2c-0.1,0.5-0.4,0.8-0.7,1.2c-1.1,1.2-2.1,2.3-3.2,3.5c-0.8,0.8-1.5,1.7-2.3,2.5
			c-0.2,0.2-0.4,0.4-0.7,0.5c-0.6,0.2-1.1,0.5-1.7,0.7c-0.5,0.2-1.1,0-1.2-0.6c0-0.1,0-0.3,0-0.4c0.2-0.7,0.4-1.3,0.7-2
			c0-0.1,0.1-0.3,0.2-0.4c1-1.1,2-2.1,2.9-3.2c0.9-1,1.9-2.1,2.8-3.1C16.1,4,17.4,4.1,18,5.1c0.1,0.2,0.2,0.4,0.2,0.7
			C18.3,5.9,18.3,6,18.3,6.2z M17.1,6c0-0.2-0.1-0.4-0.3-0.5c-0.2-0.1-0.4-0.1-0.5,0.1c-0.1,0.1-0.2,0.2-0.3,0.3
			c-1.3,1.4-2.5,2.8-3.8,4.1c-0.3,0.3-0.6,0.6-0.9,1c-0.1,0.1-0.1,0.1,0,0.2c0.2,0.2,0.4,0.3,0.5,0.5c0.1,0.1,0.1,0.1,0.2,0
			c0.1-0.1,0.2-0.2,0.2-0.3c1.2-1.3,2.3-2.5,3.5-3.8c0.4-0.4,0.8-0.9,1.2-1.3C17,6.2,17.1,6.1,17.1,6z M10,13.2
			C10.1,13.2,10.1,13.2,10,13.2c0.4-0.2,0.7-0.3,1-0.5c0,0,0,0,0-0.1c-0.2-0.2-0.4-0.4-0.7-0.6c0,0-0.1,0-0.1,0
			C10.2,12.4,10.1,12.7,10,13.2C10,13.1,10,13.2,10,13.2z"/>
	</g>
</g>
</svg>
